<svg id="Layer_1" enable-background="new 0 0 512 512" viewBox="0 0 512 512" xmlns="http://www.w3.org/2000/svg"><g><path d="m371 326h-230c-11.046 0-20-8.954-20-20v-100c0-11.046 8.954-20 20-20h230c11.046 0 20 8.954 20 20v100c0 11.046-8.954 20-20 20z" fill="#a9dbf5"/><path d="m371 186h-30c11.046 0 20 8.954 20 20v100c0 11.046-8.954 20-20 20h30c11.046 0 20-8.954 20-20v-100c0-11.046-8.954-20-20-20z" fill="#88c3e0"/><path d="m151 287v-62c0-4.971 4.029-9 9-9h192c4.971 0 9 4.029 9 9v62c0 4.971-4.029 9-9 9h-192c-4.971 0-9-4.029-9-9z" fill="#43809f"/><path d="m352 216h-30c4.971 0 9 4.029 9 9v62c0 4.971-4.029 9-9 9h30c4.971 0 9-4.029 9-9v-62c0-4.971-4.029-9-9-9z" fill="#43809f"/><circle cx="256" cy="256" fill="#f78e36" r="67"/><path d="m256 189c-5.159 0-10.175.603-15 1.707 29.778 6.814 52 33.45 52 65.293 0 31.844-22.222 58.479-52 65.293 4.825 1.104 9.841 1.707 15 1.707 37.003 0 67-29.997 67-67s-29.997-67-67-67z" fill="#f86f1b"/><path d="m256 7.5c-137.24 0-248.5 111.26-248.5 248.5s111.26 248.5 248.5 248.5 248.5-111.26 248.5-248.5-111.26-248.5-248.5-248.5zm0 437c-103.94 0-188.5-84.56-188.5-188.5s84.56-188.5 188.5-188.5 188.5 84.56 188.5 188.5-84.56 188.5-188.5 188.5z" fill="#29cef6"/><g><path d="m256 7.5c-5.038 0-10.036.168-15 .464 130.254 7.758 233.5 115.834 233.5 248.036s-103.246 240.278-233.5 248.036c4.964.296 9.962.464 15 .464 137.24 0 248.5-111.26 248.5-248.5s-111.26-248.5-248.5-248.5z" fill="#22b5ed"/></g><path d="m504.5 256h-60c0-51.97-21.14-99.1-55.27-133.23l42.49-42.49c44.96 44.98 72.78 107.1 72.78 175.72z" fill="#f78e36"/><path d="m416.061 95.939c36.456 43.237 58.439 99.077 58.439 160.061h30c0-68.62-27.82-130.74-72.78-175.72z" fill="#f86f1b"/><path d="m431.72 431.72c-44.98 44.96-107.1 72.78-175.72 72.78v-60c51.97 0 99.1-21.14 133.23-55.27z" fill="#ffc328"/><path d="m416.061 416.061c-39.514 46.864-96.039 78.903-160.061 86.609v1.829c68.62 0 130.74-27.82 175.72-72.78z" fill="#ffb200"/><path d="m122.77 389.23-42.49 42.49c-44.96-44.98-72.78-107.1-72.78-175.72h60c0 51.97 21.14 99.1 55.27 133.23z" fill="#f78e36"/><path d="m256 7.5v60c-51.97 0-99.1 21.14-133.23 55.27l-42.49-42.49c44.98-44.96 107.1-72.78 175.72-72.78z" fill="#ffc328"/><circle cx="256" cy="256" fill="#43809f" r="22.25"/><g><path d="m473.751 121.324c-2.183-3.521-6.807-4.604-10.326-2.424-3.521 2.182-4.605 6.805-2.424 10.326 22.239 35.882 34.571 76.97 35.877 119.274h-45.036c-1.831-48.393-21.284-92.345-52.121-125.614l31.9-31.9c3.918 4.175 7.722 8.487 11.371 12.969 2.614 3.211 7.339 3.696 10.552 1.081 3.212-2.615 3.696-7.339 1.081-10.552-48.886-60.046-121.281-94.484-198.625-94.484-68.379 0-132.666 26.629-181.018 74.981-48.353 48.353-74.982 112.64-74.982 181.019s26.629 132.666 74.982 181.019c48.352 48.352 112.639 74.981 181.018 74.981s132.666-26.629 181.019-74.981c48.352-48.353 74.981-112.64 74.981-181.019 0-47.731-13.227-94.302-38.249-134.676zm-42.126 299.694-31.904-31.904c30.837-33.27 50.29-77.222 52.121-125.615h45.03c-1.793 59.067-24.748 114.483-65.247 157.519zm-168.125 30.824c48.393-1.831 92.345-21.284 125.615-52.121l31.904 31.904c-43.036 40.499-98.452 63.453-157.518 65.247v-45.03zm-7.5-14.842c-8.364 0-16.778-.579-25.008-1.721-4.108-.575-7.891 2.295-8.459 6.398-.569 4.103 2.295 7.89 6.398 8.459 6.452.895 13.007 1.466 19.57 1.716v45.02c-59.066-1.794-114.482-24.749-157.518-65.248l31.93-31.93c21.07 19.469 46.313 34.355 73.52 43.053 3.947 1.259 8.166-.915 9.428-4.86 1.261-3.945-.915-8.167-4.86-9.428-35.751-11.429-67.848-34.425-90.378-64.752-23.306-31.369-35.623-68.613-35.623-107.707 0-99.804 81.196-181 181-181s181 81.196 181 181-81.196 181-181 181zm-240.873-173.5h45.016c1.482 39.595 14.692 77.19 38.436 109.152 4.262 5.737 8.847 11.225 13.708 16.453l-31.913 31.913c-40.498-43.036-63.453-98.452-65.247-157.518zm65.248-172.518 31.904 31.904c-30.837 33.27-50.291 77.222-52.121 125.615h-45.03c1.793-59.067 24.748-114.483 65.247-157.519zm183.125-30.824v-45.035c59.195 1.815 114.872 25.076 157.528 65.242l-31.913 31.914c-33.27-30.837-77.222-50.291-125.615-52.121zm-15 0c-48.393 1.831-92.345 21.284-125.615 52.121l-31.903-31.904c43.036-40.499 98.452-63.454 157.518-65.248z"/><path d="m323.5 178.5v-24.5c0-4.142-3.357-7.5-7.5-7.5s-7.5 3.358-7.5 7.5v24.5h-45v-72.5c0-4.142-3.357-7.5-7.5-7.5-4.142 0-7.5 3.358-7.5 7.5v72.5h-45v-24.5c0-4.142-3.358-7.5-7.5-7.5s-7.5 3.358-7.5 7.5v24.5h-47.5c-15.164 0-27.5 12.336-27.5 27.5v17.314c0 4.142 3.358 7.5 7.5 7.5s7.5-3.358 7.5-7.5v-17.314c0-6.893 5.607-12.5 12.5-12.5h74.53c-6.355 4.129-12.053 9.186-16.876 15h-38.654c-9.098 0-16.5 7.402-16.5 16.5v62c0 9.098 7.402 16.5 16.5 16.5h38.653c4.824 5.814 10.521 10.871 16.876 15h-74.529c-6.893 0-12.5-5.607-12.5-12.5v-50c0-4.142-3.358-7.5-7.5-7.5s-7.5 3.358-7.5 7.5v50c0 15.164 12.336 27.5 27.5 27.5h47.5v24.5c0 4.142 3.358 7.5 7.5 7.5s7.5-3.358 7.5-7.5v-24.5h45v72.5c0 4.142 3.358 7.5 7.5 7.5 4.143 0 7.5-3.358 7.5-7.5v-72.5h45v24.5c0 4.142 3.357 7.5 7.5 7.5s7.5-3.358 7.5-7.5v-24.5h47.5c15.163 0 27.5-12.336 27.5-27.5v-100c0-15.164-12.337-27.5-27.5-27.5zm-163.5 110c-.827 0-1.5-.673-1.5-1.5v-62c0-.827.673-1.5 1.5-1.5h28.976c-4.785 9.828-7.476 20.854-7.476 32.5s2.691 22.672 7.476 32.5zm36.5-32.5c0-32.809 26.691-59.5 59.5-59.5s59.5 26.691 59.5 59.5-26.691 59.5-59.5 59.5-59.5-26.691-59.5-59.5zm126.524-32.5h28.976c.827 0 1.5.673 1.5 1.5v62c0 .827-.673 1.5-1.5 1.5h-28.976c4.785-9.828 7.476-20.854 7.476-32.5s-2.691-22.672-7.476-32.5zm60.476-17.5v100c0 6.893-5.607 12.5-12.5 12.5h-74.53c6.355-4.129 12.053-9.186 16.876-15h38.654c9.098 0 16.5-7.402 16.5-16.5v-62c0-9.098-7.402-16.5-16.5-16.5h-38.653c-4.824-5.814-10.521-10.871-16.876-15h74.529c6.893 0 12.5 5.607 12.5 12.5z"/><path d="m285.75 256c0-16.404-13.346-29.75-29.75-29.75s-29.75 13.346-29.75 29.75 13.346 29.75 29.75 29.75 29.75-13.346 29.75-29.75zm-44.5 0c0-8.133 6.617-14.75 14.75-14.75s14.75 6.617 14.75 14.75-6.617 14.75-14.75 14.75-14.75-6.617-14.75-14.75z"/></g></g></svg>