<?xml version="1.0" encoding="iso-8859-1"?>
<!-- Generator: Adobe Illustrator 19.0.0, SVG Export Plug-In . SVG Version: 6.00 Build 0)  -->
<svg version="1.1" id="Layer_1" xmlns="http://www.w3.org/2000/svg" xmlns:xlink="http://www.w3.org/1999/xlink" x="0px" y="0px"
	 viewBox="0 0 512 512" style="enable-background:new 0 0 512 512;" xml:space="preserve">
<path style="fill:#66E177;" d="M483.556,436.148c0-13.092,8.844-24.117,20.883-27.429c4.331-1.191,7.561-4.772,7.561-9.263V112.543
	c0-4.492-3.231-8.071-7.561-9.263c-12.039-3.31-20.883-14.336-20.883-27.428s8.844-24.117,20.883-27.429
	c4.331-1.191,7.561-4.772,7.561-9.263V28.444C512,12.735,499.265,0,483.556,0H28.444C12.735,0,0,12.735,0,28.444v10.716
	c0,4.492,3.231,8.071,7.561,9.263c12.039,3.31,20.883,14.336,20.883,27.428s-8.844,24.117-20.883,27.429
	C3.231,104.472,0,108.051,0,112.543v286.913c0,4.492,3.231,8.071,7.561,9.263c12.039,3.311,20.883,14.337,20.883,27.429
	c0,13.092-8.844,24.117-20.883,27.429C3.231,464.768,0,468.347,0,472.839v10.716C0,499.265,12.735,512,28.444,512h455.111
	c15.71,0,28.444-12.735,28.444-28.444v-10.716c0-4.492-3.231-8.071-7.561-9.263C492.399,460.265,483.556,449.24,483.556,436.148z"/>
<g>
	<path style="fill:#929CB4;" d="M265.481,104.296h-18.963c-5.236,0-9.481-4.245-9.481-9.481V66.37c0-5.236,4.245-9.481,9.481-9.481
		h18.963c5.236,0,9.481,4.245,9.481,9.481v28.444C274.963,100.051,270.718,104.296,265.481,104.296z"/>
	<path style="fill:#929CB4;" d="M322.37,104.296h-18.963c-5.236,0-9.481-4.245-9.481-9.481V66.37c0-5.236,4.245-9.481,9.481-9.481
		h18.963c5.236,0,9.482,4.245,9.482,9.481v28.444C331.852,100.051,327.607,104.296,322.37,104.296z"/>
	<path style="fill:#929CB4;" d="M379.259,104.296h-18.963c-5.236,0-9.481-4.245-9.481-9.481V66.37c0-5.236,4.245-9.481,9.481-9.481
		h18.963c5.236,0,9.481,4.245,9.481,9.481v28.444C388.741,100.051,384.495,104.296,379.259,104.296z"/>
	<path style="fill:#929CB4;" d="M151.704,104.296h-18.963c-5.236,0-9.481-4.245-9.481-9.481V66.37c0-5.236,4.245-9.481,9.481-9.481
		h18.963c5.236,0,9.481,4.245,9.481,9.481v28.444C161.185,100.051,156.94,104.296,151.704,104.296z"/>
	<path style="fill:#929CB4;" d="M208.593,104.296H189.63c-5.236,0-9.481-4.245-9.481-9.481V66.37c0-5.236,4.245-9.481,9.481-9.481
		h18.963c5.236,0,9.481,4.245,9.481,9.481v28.444C218.074,100.051,213.829,104.296,208.593,104.296z"/>
	<path style="fill:#929CB4;" d="M265.481,455.111h-18.963c-5.236,0-9.481-4.245-9.481-9.481v-28.444
		c0-5.236,4.245-9.481,9.481-9.481h18.963c5.236,0,9.481,4.245,9.481,9.481v28.444C274.963,450.866,270.718,455.111,265.481,455.111
		z"/>
	<path style="fill:#929CB4;" d="M322.37,455.111h-18.963c-5.236,0-9.481-4.245-9.481-9.481v-28.444c0-5.236,4.245-9.481,9.481-9.481
		h18.963c5.236,0,9.482,4.245,9.482,9.481v28.444C331.852,450.866,327.607,455.111,322.37,455.111z"/>
	<path style="fill:#929CB4;" d="M379.259,455.111h-18.963c-5.236,0-9.481-4.245-9.481-9.481v-28.444
		c0-5.236,4.245-9.481,9.481-9.481h18.963c5.236,0,9.481,4.245,9.481,9.481v28.444C388.741,450.866,384.495,455.111,379.259,455.111
		z"/>
	<path style="fill:#929CB4;" d="M151.704,455.111h-18.963c-5.236,0-9.481-4.245-9.481-9.481v-28.444
		c0-5.236,4.245-9.481,9.481-9.481h18.963c5.236,0,9.481,4.245,9.481,9.481v28.444C161.185,450.866,156.94,455.111,151.704,455.111z
		"/>
	<path style="fill:#929CB4;" d="M208.593,455.111H189.63c-5.236,0-9.481-4.245-9.481-9.481v-28.444c0-5.236,4.245-9.481,9.481-9.481
		h18.963c5.236,0,9.481,4.245,9.481,9.481v28.444C218.074,450.866,213.829,455.111,208.593,455.111z"/>
</g>
<g>
	<circle style="fill:#00C85C;" cx="71.111" cy="42.667" r="14.222"/>
	<circle style="fill:#00C85C;" cx="440.889" cy="42.667" r="14.222"/>
	<circle style="fill:#00C85C;" cx="71.111" cy="469.333" r="14.222"/>
	<circle style="fill:#00C85C;" cx="440.889" cy="469.333" r="14.222"/>
</g>
<g>
	<path style="fill:#929CB4;" d="M407.704,265.481v-18.963c0-5.236,4.245-9.481,9.481-9.481h28.444c5.236,0,9.481,4.245,9.481,9.481
		v18.963c0,5.236-4.245,9.481-9.481,9.481h-28.444C411.949,274.963,407.704,270.718,407.704,265.481z"/>
	<path style="fill:#929CB4;" d="M407.704,322.37v-18.963c0-5.236,4.245-9.481,9.481-9.481h28.444c5.236,0,9.481,4.245,9.481,9.481
		v18.963c0,5.236-4.245,9.482-9.481,9.482h-28.444C411.949,331.852,407.704,327.607,407.704,322.37z"/>
	<path style="fill:#929CB4;" d="M407.704,379.259v-18.963c0-5.236,4.245-9.481,9.481-9.481h28.444c5.236,0,9.481,4.245,9.481,9.481
		v18.963c0,5.236-4.245,9.481-9.481,9.481h-28.444C411.949,388.741,407.704,384.495,407.704,379.259z"/>
	<path style="fill:#929CB4;" d="M407.704,151.704v-18.963c0-5.236,4.245-9.481,9.481-9.481h28.444c5.236,0,9.481,4.245,9.481,9.481
		v18.963c0,5.236-4.245,9.481-9.481,9.481h-28.444C411.949,161.185,407.704,156.94,407.704,151.704z"/>
	<path style="fill:#929CB4;" d="M407.704,208.593V189.63c0-5.236,4.245-9.481,9.481-9.481h28.444c5.236,0,9.481,4.245,9.481,9.481
		v18.963c0,5.236-4.245,9.481-9.481,9.481h-28.444C411.949,218.074,407.704,213.829,407.704,208.593z"/>
	<path style="fill:#929CB4;" d="M56.889,265.481v-18.963c0-5.236,4.245-9.481,9.481-9.481h28.444c5.236,0,9.481,4.245,9.481,9.481
		v18.963c0,5.236-4.245,9.481-9.481,9.481H66.37C61.134,274.963,56.889,270.718,56.889,265.481z"/>
	<path style="fill:#929CB4;" d="M56.889,322.37v-18.963c0-5.236,4.245-9.481,9.481-9.481h28.444c5.236,0,9.481,4.245,9.481,9.481
		v18.963c0,5.236-4.245,9.482-9.481,9.482H66.37C61.134,331.852,56.889,327.607,56.889,322.37z"/>
	<path style="fill:#929CB4;" d="M56.889,379.259v-18.963c0-5.236,4.245-9.481,9.481-9.481h28.444c5.236,0,9.481,4.245,9.481,9.481
		v18.963c0,5.236-4.245,9.481-9.481,9.481H66.37C61.134,388.741,56.889,384.495,56.889,379.259z"/>
	<path style="fill:#929CB4;" d="M56.889,151.704v-18.963c0-5.236,4.245-9.481,9.481-9.481h28.444c5.236,0,9.481,4.245,9.481,9.481
		v18.963c0,5.236-4.245,9.481-9.481,9.481H66.37C61.134,161.185,56.889,156.94,56.889,151.704z"/>
	<path style="fill:#929CB4;" d="M56.889,208.593V189.63c0-5.236,4.245-9.481,9.481-9.481h28.444c5.236,0,9.481,4.245,9.481,9.481
		v18.963c0,5.236-4.245,9.481-9.481,9.481H66.37C61.134,218.074,56.889,213.829,56.889,208.593z"/>
</g>
<path style="fill:#444455;" d="M407.704,426.667H104.296c-10.473,0-18.963-8.489-18.963-18.963V104.296
	c0-10.473,8.489-18.963,18.963-18.963h303.407c10.473,0,18.963,8.489,18.963,18.963v303.407
	C426.667,418.177,418.177,426.667,407.704,426.667z"/>
<rect x="104.296" y="104.296" style="fill:#5A5D6F;" width="303.407" height="303.407"/>
<g>
	<path style="fill:#6F7588;" d="M150.679,255.974c0-24.53,13.979-39.354,36.031-39.354c14.074,0,25.561,6.861,30.669,17.777
		c2.367,5.057-1.323,10.868-6.906,10.868h-0.122c-3.008,0-5.817-1.736-6.956-4.52c-2.758-6.743-8.999-10.937-16.685-10.937
		c-12.027,0-19.782,10.075-19.782,26.113c0,16.248,7.649,26.271,19.835,26.271c7.804,0,13.807-3.784,16.608-10.19
		c1.182-2.701,3.938-4.37,6.886-4.37l0,0c5.623,0,9.352,5.905,6.867,10.948c-5.189,10.527-16.156,16.8-30.414,16.8
		C164.552,295.38,150.679,280.557,150.679,255.974z"/>
	<path style="fill:#6F7588;" d="M261.777,217.939c15.615,0,26.376,10.393,26.376,26.06c0,15.615-11.131,26.06-27.168,26.06h-15.034
		v16.037c0,4.399-3.566,7.966-7.966,7.966l0,0c-4.399,0-7.966-3.566-7.966-7.966v-60.191c0-4.399,3.566-7.966,7.966-7.966
		L261.777,217.939L261.777,217.939z M245.951,257.609h11.553c9.126,0,14.455-4.853,14.455-13.557
		c0-8.652-5.275-13.505-14.401-13.505h-11.605v27.063H245.951z"/>
	<path style="fill:#6F7588;" d="M313.474,265.575c0,9.759,5.75,16.142,15.985,16.142c10.181,0,15.931-6.383,15.931-16.142v-39.671
		c0-4.399,3.566-7.966,7.966-7.966l0,0c4.399,0,7.966,3.566,7.966,7.966v41.253c0,16.775-12.397,28.223-31.863,28.223
		c-19.519,0-31.916-11.448-31.916-28.223v-41.253c0-4.399,3.566-7.966,7.966-7.966l0,0c4.399,0,7.966,3.566,7.966,7.966V265.575z"/>
</g>
<circle style="fill:#444455;" cx="137.481" cy="137.481" r="14.222"/>
<g>
</g>
<g>
</g>
<g>
</g>
<g>
</g>
<g>
</g>
<g>
</g>
<g>
</g>
<g>
</g>
<g>
</g>
<g>
</g>
<g>
</g>
<g>
</g>
<g>
</g>
<g>
</g>
<g>
</g>
</svg>
