<svg id="Capa_1" enable-background="new 0 0 512 512" viewBox="0 0 512 512" xmlns="http://www.w3.org/2000/svg"><g><g><path d="m423.01 263.15v198.39c0 3.86-3.13 7-7 7h-320.02c-3.87 0-7-3.14-7-7v-198.39l167.01-163.06z" fill="#eefaff"/><path d="m282.09 125.561-140.926 137.597v205.378h-45.179c-3.866 0-7-3.134-7-7v-198.378l167.015-163.071z" fill="#dff1f7"/><g><g><g><path d="m359.263 307.458c-2.003 0-4.006-.764-5.535-2.293-26.147-26.147-60.854-40.547-97.728-40.547s-71.581 14.4-97.728 40.547c-3.058 3.057-8.013 3.057-11.07 0-3.056-3.056-3.056-8.012 0-11.069 29.105-29.104 67.743-45.132 108.798-45.132s79.693 16.028 108.798 45.132c3.056 3.056 3.056 8.012 0 11.069-1.529 1.529-3.532 2.293-5.535 2.293z" fill="#01d0fb"/></g><g><path d="m329.76 336.961c-2.003 0-4.005-.763-5.533-2.291-18.264-18.254-42.493-28.307-68.227-28.307s-49.964 10.053-68.227 28.307c-3.055 3.055-8.011 3.054-11.069-.003-3.055-3.057-3.054-8.013.003-11.069 21.219-21.209 49.38-32.889 79.293-32.889s58.074 11.68 79.293 32.889c3.057 3.056 3.058 8.011.003 11.069-1.529 1.529-3.532 2.294-5.536 2.294z" fill="#01d0fb"/></g><g><path d="m300.248 366.473c-2.005 0-4.008-.765-5.537-2.295-10.355-10.364-24.103-16.072-38.712-16.072s-28.356 5.708-38.712 16.072c-3.057 3.058-8.013 3.059-11.069.005-3.058-3.055-3.06-8.011-.005-11.069 13.312-13.324 30.993-20.662 49.785-20.662s36.474 7.338 49.785 20.662c3.055 3.058 3.053 8.013-.005 11.069-1.525 1.527-3.528 2.29-5.53 2.29z" fill="#01d0fb"/></g><g><path d="m263.83 423.77v44.77h-15.66v-44.77c0-4.33 3.51-7.83 7.83-7.83s7.83 3.5 7.83 7.83z" fill="#01d0fb"/></g></g></g><path d="m251.053 28.08-248.919 243.033c-2.822 2.755-2.849 7.286-.06 10.075 24.592 24.592 64.389 24.83 89.274.534l159.705-155.929c2.751-2.686 7.143-2.686 9.895 0l159.705 155.929c24.884 24.296 64.682 24.058 89.274-.534 2.789-2.789 2.762-7.319-.06-10.075l-248.92-243.033c-2.751-2.686-7.143-2.686-9.894 0z" fill="#548eb5"/><path d="m494.754 256.359c-16.184 16.184-42.369 16.346-58.745.357-62.436-60.96-175.062-170.923-175.062-170.923-2.751-2.686-7.143-2.686-9.895 0 0 0-112.626 109.963-175.062 170.923-16.376 15.989-42.561 15.827-58.745-.357l-15.11 14.754c-2.822 2.755-2.849 7.286-.06 10.075 24.592 24.592 64.387 24.832 89.271.536 63.871-62.361 159.707-155.931 159.707-155.931 2.751-2.686 7.143-2.686 9.895 0 0 0 95.835 93.569 159.707 155.931 24.884 24.296 64.68 24.056 89.271-.536 2.789-2.789 2.762-7.319-.06-10.075z" fill="#447d99"/><circle cx="256" cy="402.894" fill="#548eb5" r="20.872"/></g><path d="m437.808 485.935h-363.543c-4.544 0-8.228-3.684-8.228-8.228v-20.861c0-4.544 3.684-8.228 8.228-8.228h363.543c4.544 0 8.228 3.684 8.228 8.228v20.861c0 4.544-3.684 8.228-8.228 8.228z" fill="#f37c7b"/></g></svg>