<svg viewBox="0 0 256 256" xmlns="http://www.w3.org/2000/svg"><g id="Layer_1"><g><path d="m243 219.431h-230c-2.761 0-5-2.239-5-5v-191.5c0-2.761 2.239-5 5-5h230c2.761 0 5 2.239 5 5v191.5c0 2.762-2.239 5-5 5z" fill="#afafaf"/><path d="m238 193.611c-1.38 0-2.5-1.12-2.5-2.5v-163.18c0-1.38 1.12-2.5 2.5-2.5s2.5 1.12 2.5 2.5v163.18c0 1.38-1.12 2.5-2.5 2.5z" fill="#efefef"/><path d="m248 191.11h-240v23.322c0 2.761 2.239 5 5 5h230c2.761 0 5-2.239 5-5z" fill="#7d7b79"/><path d="m238 211.931h-206.68c-1.381 0-2.5-1.119-2.5-2.5s1.119-2.5 2.5-2.5h204.18v-15.82c0-1.381 1.119-2.5 2.5-2.5s2.5 1.119 2.5 2.5v18.32c0 1.381-1.119 2.5-2.5 2.5zm-216.68 0h-3.32c-1.381 0-2.5-1.119-2.5-2.5s1.119-2.5 2.5-2.5h3.32c1.381 0 2.5 1.119 2.5 2.5s-1.119 2.5-2.5 2.5z" fill="#efefef"/><path d="m229.5 37.931v65.5c0 2.761-2.239 5-5 5h-193c-2.761 0-5-2.239-5-5v-65.5c0-2.761 2.239-5 5-5h193c2.761 0 5 2.239 5 5z" fill="#f0c020"/><path d="m219.5 100.931h-168.5c-1.381 0-2.5-1.119-2.5-2.5s1.119-2.5 2.5-2.5h166v-53c0-1.381 1.119-2.5 2.5-2.5s2.5 1.119 2.5 2.5v55.5c0 1.381-1.119 2.5-2.5 2.5zm-178.5 0h-4.5c-1.381 0-2.5-1.119-2.5-2.5s1.119-2.5 2.5-2.5h4.5c1.381 0 2.5 1.119 2.5 2.5s-1.119 2.5-2.5 2.5z" fill="#f8e5b0"/><path d="m140.5 108.431h-25c0-6.9 5.6-12.5 12.5-12.5s12.5 5.6 12.5 12.5z" fill="#72c2e9"/><path d="m128 66.431-9.14 14.667h18.28z" fill="#fc5d3d"/><circle cx="39.055" cy="151.766" fill="#72c2e9" r="12.555"/><circle cx="73" cy="151.766" fill="#f0c020" r="12.555"/><path d="m229.5 136.431v34c0 2.761-2.239 5-5 5h-22.5c-2.761 0-5-2.239-5-5v-34c0-2.761 2.239-5 5-5h22.5c2.761 0 5 2.239 5 5z" fill="#fc5d3d"/><path d="m229.5 153.431v17c0 2.761-2.239 5-5 5h-22.5c-2.761 0-5-2.239-5-5v-17z" fill="#13bf6d"/><path d="m220.5 168.931h-14.5c-1.38 0-2.5-1.12-2.5-2.5s1.12-2.5 2.5-2.5h12v-10.5-.01c.01-1.37 1.13-2.49 2.5-2.49 1.38 0 2.5 1.12 2.5 2.5v13c0 1.401-1.129 2.5-2.5 2.5z" fill="#76ffbb"/><path d="m220.5 155.931c-1.38 0-2.5-1.12-2.5-2.5v-13c0-1.38 1.12-2.5 2.5-2.5s2.5 1.12 2.5 2.5v13c0 1.38-1.12 2.5-2.5 2.5z" fill="#ffcbc3"/><path d="m172.5 164.431h-62c-2.761 0-5-2.239-5-5v-15.22c0-2.761 2.239-5 5-5h62c2.761 0 5 2.239 5 5v15.22c0 2.762-2.239 5-5 5z" fill="#7d7b79"/><path d="m60.44 219.431v13.81c0 2.76-2.23 5-5 5h-27.94c-2.76 0-5-2.24-5-5v-13.81z" fill="#afafaf"/><path d="m22.5 219.431h37.94v7h-37.94z" fill="#7d7b79"/><path d="m230.28 219.431v13.81c0 2.76-2.24 5-5 5h-27.95c-2.76 0-5-2.24-5-5v-13.81z" fill="#afafaf"/><path d="m192.33 219.431h37.95v7h-37.95z" fill="#7d7b79"/><g><path d="m243 15.431h-230c-4.136 0-7.5 3.364-7.5 7.5v191.5c0 4.136 3.364 7.5 7.5 7.5h7v11.31c0 4.13 3.359 7.49 7.5 7.5h27.939c4.141-.01 7.5-3.37 7.5-7.5v-11.31h126.891v11.31c0 4.13 3.37 7.49 7.5 7.5h27.95c4.13-.01 7.5-3.37 7.5-7.5v-11.31h10.22c4.136 0 7.5-3.364 7.5-7.5v-191.5c0-4.136-3.364-7.5-7.5-7.5zm-185.05 217.81c-.011 1.37-1.131 2.49-2.511 2.5h-27.939c-1.38-.01-2.5-1.13-2.5-2.5v-11.31h32.95zm169.83 0c-.011 1.37-1.131 2.49-2.5 2.5h-27.95c-1.37-.01-2.49-1.13-2.5-2.5v-11.31h32.95zm17.72-44.63h-186.5c-1.38 0-2.5 1.12-2.5 2.5s1.12 2.5 2.5 2.5h186.5v20.82c0 1.378-1.121 2.5-2.5 2.5-2.818 0-224.951 0-230 0-1.379 0-2.5-1.122-2.5-2.5v-20.82h28.5c1.38 0 2.5-1.12 2.5-2.5s-1.12-2.5-2.5-2.5h-28.5v-165.68c0-1.378 1.121-2.5 2.5-2.5h230c1.379 0 2.5 1.122 2.5 2.5z"/><path d="m224.5 30.431h-20.57c-1.38 0-2.5 1.12-2.5 2.5s1.12 2.5 2.5 2.5h20.57c1.37 0 2.5 1.12 2.5 2.5v65.5c0 1.37-1.13 2.5-2.5 2.5h-81.726c-1.196-7.082-7.358-12.5-14.774-12.5-3.497 0-6.711 1.213-9.265 3.227l-42.931-23.25c14.854-11.238 33.138-17.557 52.196-17.557 26.522 0 51.559 12.236 67.909 32.95h-3.579c-1.37 0-2.5 1.12-2.5 2.5s1.13 2.5 2.5 2.5h14.34c1.38 0 2.5-1.12 2.5-2.5s-1.12-2.5-2.5-2.5h-4.497c-16.853-23.304-44.039-37.958-74.173-37.96-20.013-.001-40.191 6.531-57.005 19.962l-9.365-5.072c-1.164-.645-2.725-.225-3.38 1.01-.66 1.21-.21 2.73 1 3.39l7.649 4.143c-4.855 4.362-9.247 9.238-13.073 14.528h-5.496c-1.38 0-2.5 1.12-2.5 2.5 0 1.37 1.12 2.5 2.5 2.5h14.34c1.38 0 2.5-1.13 2.5-2.5 0-1.38-1.12-2.5-2.5-2.5h-2.585c3.466-4.391 7.323-8.398 11.5-11.99l43.715 23.676c-1.025 1.632-1.741 3.472-2.074 5.444h-81.726c-1.38 0-2.5-1.13-2.5-2.5v-65.5c0-1.38 1.12-2.5 2.5-2.5h152.43c1.38 0 2.5-1.12 2.5-2.5s-1.12-2.5-2.5-2.5h-152.43c-4.13 0-7.5 3.37-7.5 7.5v65.5c0 4.13 3.37 7.5 7.5 7.5h193c4.13 0 7.5-3.37 7.5-7.5v-65.5c0-4.131-3.37-7.501-7.5-7.501zm-106.166 75.5c.288-1.103.75-2.136 1.371-3.058l5.646 3.058zm11.705 0c.921-1.328.38-2.944-.849-3.61l-5.414-2.932c1.286-.605 2.714-.955 4.224-.958 4.636.008 8.542 3.204 9.665 7.5z"/><circle cx="193.93" cy="32.931" r="2.5"/><path d="m39.055 136.711c-8.301 0-15.055 6.754-15.055 15.055s6.754 15.055 15.055 15.055 15.055-6.753 15.055-15.055-6.755-15.055-15.055-15.055zm0 25.11c-5.544 0-10.055-4.511-10.055-10.055s4.511-10.055 10.055-10.055 10.055 4.511 10.055 10.055c-.001 5.545-4.511 10.055-10.055 10.055z"/><path d="m73 136.711c-8.301 0-15.055 6.754-15.055 15.055s6.754 15.055 15.055 15.055 15.055-6.753 15.055-15.055-6.754-15.055-15.055-15.055zm0 25.11c-5.544 0-10.055-4.511-10.055-10.055s4.511-10.055 10.055-10.055 10.055 4.511 10.055 10.055c0 5.545-4.511 10.055-10.055 10.055z"/><path d="m224.5 128.931h-22.5c-4.136 0-7.5 3.364-7.5 7.5v34c0 4.136 3.364 7.5 7.5 7.5h22.5c4.136 0 7.5-3.364 7.5-7.5v-34c0-4.136-3.364-7.5-7.5-7.5zm2.5 41.5c0 1.378-1.121 2.5-2.5 2.5h-22.5c-1.379 0-2.5-1.122-2.5-2.5v-14.5h27.5zm0-19.5h-27.5v-14.5c0-1.378 1.121-2.5 2.5-2.5h22.5c1.379 0 2.5 1.122 2.5 2.5z"/><circle cx="131.56" cy="139.211" r="2.5"/><path d="m172.5 136.711h-30.931c-1.38 0-2.5 1.12-2.5 2.5s1.12 2.5 2.5 2.5h.011 30.92c1.38 0 2.5 1.13 2.5 2.5v15.22c0 1.38-1.12 2.5-2.5 2.5h-62c-1.38 0-2.5-1.12-2.5-2.5v-15.22c0-1.37 1.12-2.5 2.5-2.5h11.069c1.37 0 2.49-1.12 2.49-2.5s-1.12-2.5-2.49-2.5h-11.069c-4.141 0-7.5 3.36-7.5 7.5v15.22c0 4.13 3.359 7.5 7.5 7.5h62c4.13 0 7.5-3.37 7.5-7.5v-15.22c0-4.14-3.37-7.5-7.5-7.5z"/><circle cx="49" cy="191.111" r="2.5"/><path d="m125.88 65.111-9.14 14.66c-1.054 1.689.18 3.83 2.119 3.83h18.28c1.922 0 3.177-2.113 2.12-3.83l-9.14-14.66c-.965-1.567-3.269-1.573-4.239 0zm-2.521 13.49 4.641-7.44 4.64 7.44z"/></g></g></g></svg>